<svg id="Layer_1" xmlns="http://www.w3.org/2000/svg" viewBox="-230 131 100 100"><style>.st0{fill:#fff}</style><path class="st0" d="M-162.2 149.7h-35.5c-7.4 0-13.5 6.1-13.5 13.5v35.5c0 7.4 6.1 13.5 13.5 13.5h35.5c7.4 0 13.5-6.1 13.5-13.5v-35.5c0-7.4-6.1-13.5-13.5-13.5zm-6.8 10c0-1.2 1-2.2 2.2-2.2h6.6c1.2 0 2.2 1 2.2 2.2v6.6c0 1.2-1 2.2-2.2 2.2h-6.6c-1.2 0-2.2-1-2.2-2.2v-6.6zm6.8 49.3h-35.5c-5.6 0-10.2-4.6-10.2-10.2v-26.5h14.6c3.2-3.9 8-6.4 13.4-6.4s10.2 2.5 13.4 6.4h14.6v26.5c-.1 5.6-4.7 10.2-10.3 10.2z"/><circle class="st0" cx="-180" cy="182.3" r="14.4"/></svg>