<svg id="Layer_1" xmlns="http://www.w3.org/2000/svg" viewBox="-104.2 114.3 30.2 30.2"><style>.st0{fill:#fff}</style><path class="st0" d="M-89.1 114.3c-8.3 0-15.1 6.8-15.1 15.1 0 6.1 3.6 11.3 8.8 13.7 0-1.1.1-2.4.2-3.1l2.1-9.1c0-1.1-.6-2.3-.4-3.6.4-2.3 3.7-4.5 4.9-1.8 1.3 3.2-2.9 6.9-.6 9.1.4.5 1.6.8 2.6.6 4.8-1 5.5-11 1.5-13.4-5.7-3.3-12.1 1.9-11.5 7.3.3 2 2.4 3.2.6 5-2.6-1-3.6-3-3.6-6 0-6.5 6-10.5 12.5-9.8 4.3.5 7.9 3.9 8.3 7.8.4 3.5-.8 7.9-3.3 10.1-1.7 1.5-5.8 2.5-8 .8-.3-.2-.4-1-.8-.7-.7 2.6-1.4 5.5-2.5 7.6 1.4.4 2.8.6 4.3.6 8.3 0 15.1-6.8 15.1-15.1s-6.8-15.1-15.1-15.1z"/></svg>