<?xml version="1.0" encoding="utf-8"?>
<!-- Generator: Adobe Illustrator 19.1.0, SVG Export Plug-In . SVG Version: 6.00 Build 0)  -->
<svg version="1.1" id="Layer_1" xmlns="http://www.w3.org/2000/svg" xmlns:xlink="http://www.w3.org/1999/xlink" x="0px" y="0px"
	 viewBox="-230 131 100 100" style="enable-background:new -230 131 100 100;" xml:space="preserve">
<style type="text/css">
	.st0{fill:#FFFFFF;}
</style>
<path class="st0" d="M-209.9,199.1c-4.6,3.9-13.9,11.2-18.1,14.5c7.4,6.7,16.9,11.2,27.6,12.3c27.1,3,51.5-16.6,54.5-43.7
	c0.5-4.2,0.5-8.9-0.1-13.5l11.2-9l-13.6-1.5l0,0c-2.7-7.4-7.4-13.6-14.9-16.6c-11.6-4.5-26,4-27.4,16.9c-0.7,6.7,1.8,13,6.4,17.3
	l-29.4-24.4C-213.7,151.4-232.5,177.9-209.9,199.1z M-172.9,159c0.3-2.6,2.6-4.5,5.3-4.2c2.6,0.3,4.5,2.6,4.2,5.3
	c-0.3,2.6-2.7,4.5-5.3,4.2C-171.3,163.9-173.2,161.6-172.9,159z"/>
</svg>
