<svg xmlns="http://www.w3.org/2000/svg" width="55" height="55" xml:space="preserve"><path style="stroke:none;stroke-width:1;stroke-dasharray:none;stroke-linecap:butt;stroke-dashoffset:0;stroke-linejoin:miter;stroke-miterlimit:4;fill:#f8f5f5;fill-rule:nonzero;opacity:1" vector-effect="non-scaling-stroke" d="M49.382 0H5.624A5.619 5.619 0 0 0 0 5.619v43.756C0 52.485 2.52 55 5.624 55h43.752A5.62 5.62 0 0 0 55 49.375V5.62A5.61 5.61 0 0 0 49.382 0zM31.685 9.285h2.677v8.448c0 1.622.05 1.571.106 1.78.056.212.253.723.882.723.668 0 .853-.533.903-.763.045-.197.09-.157.09-1.853V9.285h2.677v12.68h-2.71l.033-.64-.825-.342c-.208.426-.455.73-.747.943a1.75 1.75 0 0 1-1.038.314c-.46 0-.836-.1-1.123-.297a1.616 1.616 0 0 1-.6-.73 3.426 3.426 0 0 1-.258-1.05c-.04-.41-.062-1.257-.062-2.52V9.284zm-9.307 5.27c0-1.324.113-2.346.326-3.07.202-.668.556-1.196 1.083-1.605.539-.421 1.252-.63 2.122-.63.74 0 1.375.147 1.891.422.506.27.893.617 1.157 1.027.269.432.46.87.555 1.314.101.46.158 1.207.158 2.211v2.234c0 1.308-.051 2.268-.146 2.852a4.134 4.134 0 0 1-.59 1.527 2.716 2.716 0 0 1-1.15 1.033c-.494.235-1.072.353-1.718.353-.74 0-1.37-.1-1.87-.314-.465-.185-.824-.46-1.071-.83a3.986 3.986 0 0 1-.556-1.399c-.123-.589-.18-1.504-.18-2.728zm-6.263-9.784 2.177 7.011c.382-1.83 1.112-4.367 1.695-7.01h1.976l-2.543 9.997-.016.078v7.113H17.09v-7.113l-.017-.078-2.93-9.998zm31.527 39.21c-.348 3.155-3.143 5.737-6.287 5.95-9.244.399-18.46.399-27.705 0-3.143-.213-5.938-2.795-6.286-5.95-.342-4.99-.342-9.897 0-14.887.348-3.155 3.143-5.731 6.286-5.956 9.24-.393 18.461-.393 27.705 0 3.143.22 5.939 2.801 6.287 5.956.348 4.99.348 9.89 0 14.887zM26.027 20.713c.387 0 .69-.235.83-.634.062-.185.14-.539.14-1.493v-5.495c0-1.112-.06-1.471-.128-1.673-.135-.41-.438-.651-.831-.651-.387 0-.69.23-.83.64-.074.196-.147.566-.147 1.684v5.343c0 1.05.079 1.41.14 1.612.141.42.438.668.826.668zm-15.06 9.341h2.616V44.767h2.74V30.054h2.626v-2.79h-7.981zm12.972 9.689c0 1.583-.045 1.97-.084 2.139-.096.41-.421.656-.882.656-.437 0-.757-.235-.858-.628-.045-.169-.096-.556-.096-2.06v-8.364h-2.598v9.11c0 1.201.016 2.004.056 2.397.033.36.129.719.275 1.055.129.304.325.54.606.719.27.185.623.275 1.05.275.364 0 .684-.095.965-.286.286-.197.539-.506.746-.915l.82.202-.034.74h2.633V31.492h-2.594zm11.478-7.578a1.516 1.516 0 0 0-.623-.651c-.28-.163-.629-.236-1.027-.236-.331 0-.634.084-.92.258-.293.19-.573.466-.82.853l-.792 1.224V27.27h-2.598v17.502h2.458l.152-.78.213-1.083.578.932c.253.42.539.724.836.926.281.185.579.286.898.286.455 0 .837-.163 1.173-.471.348-.343.567-.719.657-1.18.101-.51.157-1.318.157-1.262v-6.95c0 .028.101-.69-.05-2.127a2.713 2.713 0 0 0-.292-.898zm-2.256 7.713c0 1.246-.062 1.622-.118 1.818-.124.427-.427.674-.842.674-.399 0-.707-.236-.837-.651-.061-.186-.129-.556-.129-1.696v-3.52c0-1.184.062-1.537.118-1.705.118-.393.427-.63.825-.63.41 0 .719.248.848.669.056.185.135.556.135 1.673v3.368zm7.094-1.353h4.479v-1.443c0-1.308-.123-2.807-.359-3.508a3.112 3.112 0 0 0-1.179-1.6c-.55-.387-1.268-.59-2.138-.59-.707 0-1.336.163-1.875.495-.539.33-.91.797-1.145 1.42-.247.651-.382 1.583-.382 3.227v4.081c0 .522.062 1.303.169 1.814.106.494.308.948.584 1.358.263.387.65.696 1.133.926.5.23 1.084.348 1.746.348.673 0 1.24-.118 1.673-.342.432-.23.785-.578 1.072-1.039.297-.477.488-.937.567-1.347.084-.432.129-1.078.129-1.914v-.623h-2.414v1.431c0 .758-.05 1.252-.157 1.55-.146.404-.494.64-.937.64-.393 0-.696-.197-.831-.545-.067-.163-.14-.46-.14-1.37v-2.963l.005-.006zm0-1.87v-1.498c0-1.106.056-.938.107-1.084.118-.353.426-.567.859-.567.387 0 .684.23.802.618.05.157.107.005.107 1.033v1.919h-1.875z"/></svg>