<?xml version="1.0" encoding="utf-8"?>
<!-- Generator: Adobe Illustrator 18.1.1, SVG Export Plug-In . SVG Version: 6.00 Build 0)  -->
<svg version="1.1" id="Layer_1" xmlns="http://www.w3.org/2000/svg" xmlns:xlink="http://www.w3.org/1999/xlink" x="0px" y="0px"
	 viewBox="0 0 600 400" enable-background="new 0 0 600 400" xml:space="preserve">
<path fill="#FFC122" d="M581,242.8c-0.3,50.3-40.7,90.1-90.4,90.8L110,333.5c-50.3-0.3-90.1-40.7-90.8-90.4l0,0
	c0.3-50.3,40.7-90.1,90.4-90.8l380.6,0.2C540.7,151.9,581.3,192.5,581,242.8L581,242.8z"/>
<path fill="#205D76" stroke="#205D76" stroke-width="3" stroke-miterlimit="10" d="M197.9,228.8c44.8,13.6,70,60.9,56.4,105.7
	s-60.9,70-105.7,56.4c-44.8-13.6-70-60.9-56.4-105.7c3.3-10.7,8.4-20.3,15.1-28.5C128.4,230.6,163.9,218.5,197.9,228.8z"/>
<circle fill="#205D76" cx="428" cy="308.3" r="84.7"/>
<path fill="#FFC122" d="M109.1,163.6c-1.8-81.2,82.1-149,188.1-151.8c105.8-2,192.4,61.8,194.3,143"/>
<path fill="#FFFFFF" d="M284.1,53.2c-73.8,0.5-131.4,43.8-130,98.4l130.2,1.8L284.1,53.2z"/>
<path fill="#FFFFFF" d="M321.8,53.2c73.9,2.3,132.1,46.1,130.8,101l-131.4-0.8L321.8,53.2z"/>
<path fill="#0030FF" d="M100.4,270.1c-7,12.7-10.2,25.1-10.2,39.8c0,45.1,36.2,81.9,81.1,82.9l0-48.7l0-33.1L100.4,270.1z"/>
<path fill="#FC0C1B" d="M175.1,347.3l0,45.5c14.5-0.3,26.8-3.7,39.6-11.1c12.6-7.3,23.1-17.8,30.3-30.3
	c14.5-25.1,14.8-56.1,0.9-81.4l-60.7,35.1l-10.1,5.9L175.1,347.3z"/>
<path fill="#FFFC37" d="M102.3,266.8l70.9,40.9l0,0l13-7.5l57.8-33.4c-7.5-12.5-16.7-21.4-29.4-28.7
	C175.5,215.5,125.6,228.5,102.3,266.8z"/>
<line fill="none" x1="378" y1="270" x2="378" y2="270"/>
<path fill="#29FD61" d="M424.9,306l-38.6-67.5c-24.3,14.6-38.4,38.9-39.1,67.2L424.9,306z"/>
<path fill="#0030FF" d="M385.8,376.8l32-55l7.1-12.1l0,0l-77.7-0.3l0,0C347.7,337.7,361.6,362.1,385.8,376.8z"/>
<path fill="#B325FB" d="M466.7,379l-38.6-67.5L389,378.7C413.7,392.4,441.8,392.5,466.7,379z"/>
<path fill="#FC0C1B" d="M509,310l-77.7-0.3l38.6,67.5C494.2,362.6,508.3,338.3,509,310z"/>
<path fill="#FD9926" d="M470.4,238.8L431.3,306l16.3,0.1l61.4,0.2C508.5,278,494.6,253.6,470.4,238.8z"/>
<path fill="#FFFD37" d="M389.5,236.7l38.6,67.5l39.1-67.2C442.5,223.2,414.3,223.1,389.5,236.7z"/>
</svg>
